. 
  
http://www.torrenting.com/        :     Greatest Movie Tracker on The Net!!!
 
http://www.Torrenting.com          :     Once & For all ;)


               www . Torrenting . Com 

(((((((((((((= Enjoy No RAR releases =))))))))))))))))))))


...................................NFO:....................................

.








































          
          
              
              
                    
                    
                    
                    

Father.Of.Invention.2010.DVDRiP.AC3-SiC

Poster:
[img]http://img812.imageshack.us/img812/8766/fatherdvd.jpg[/img]

IMDB Link: 
http://www.imdb.com/title/tt1381505/

Description:
Robert Axle, an eccentric inventor turned ego maniacal infomercial guru, loses it all when one of his inventions maims thousands of customers. After 8 years in maximum security prison, Axle is ready to redeem his name and rebuild his billion dollar empire. But first he must convince his estranged 22 year old daughter to let him live with her and her quirky, over protective roommates.  

MediaInfo:
General
Complete name                    : Work\Father.Of.Invention.2010.DVDRiP.XviD.AC3-SiC.avi
Format                           : AVI
Format/Info                      : Audio Video Interleave
File size                        : 1.37 GiB
Duration                         : 1h 33mn
Overall bit rate                 : 2 102 Kbps

Video
ID                               : 0
Format                           : MPEG-4 Visual
Format profile                   : Advanced Simple@L5
Format settings, BVOP            : 1
Format settings, QPel            : No
Format settings, GMC             : No warppoints
Format settings, Matrix          : Default (H.263)
Codec ID                         : XVID
Codec ID/Hint                    : XviD
Duration                         : 1h 33mn
Bit rate                         : 1 647 Kbps
Width                            : 720 pixels
Height                           : 304 pixels
Display aspect ratio             : 2.35:1
Frame rate                       : 23.976 fps
Color space                      : YUV
Chroma subsampling               : 4:2:0
Bit depth                        : 8 bits
Scan type                        : Progressive
Compression mode                 : Lossy
Bits/(Pixel*Frame)               : 0.314
Stream size                      : 1.07 GiB (78%)
Writing library                  : XviD 1.2.1 (UTC 2008-12-04)

Audio
ID                               : 1
Format                           : AC-3
Format/Info                      : Audio Coding 3
Mode extension                   : CM (complete main)
Codec ID                         : 2000
Duration                         : 1h 33mn
Bit rate mode                    : Constant
Bit rate                         : 448 Kbps
Channel(s)                       : 6 channels
Channel positions                : Front: L C R, Side: L R, LFE
Sampling rate                    : 48.0 KHz
Bit depth                        : 16 bits
Compression mode                 : Lossy
Stream size                      : 299 MiB (21%)
Alignment                        : Aligned on interleaves
Interleave, duration             : 64 ms (1.53 video frames)
Interleave, preload duration     : 448 ms
Title                            : fatherof T80 3_2ch 448Kbps DELAY 0ms

Screenshots:
[img]http://img408.imageshack.us/img408/2293/vlcsnap2011100720h50m31.png[/img]
[img]http://img839.imageshack.us/img839/4697/vlcsnap2011100720h50m37.png[/img]
[img]http://img546.imageshack.us/img546/5779/vlcsnap2011100720h51m20.png[/img]
[img]http://img233.imageshack.us/img233/7265/vlcsnap2011100720h51m25.png[/img]
[img]http://img6.imageshack.us/img6/797/vlcsnap2011100720h53m18.png[/img]


Note : Straight rip.  

Source: Our own

Enjoy!

Respects to CaptainHomey, Cyanide, CM8, Rx, THC, ELEKTRI4KA, 
Killerhz, PA, YeFsTe, BoxSlots, MrRep and everyone in the struggle...